<svg xmlns="http://www.w3.org/2000/svg" viewBox="0 0 500 500">
  <!-- Dark Background Circle -->
  <circle cx="250" cy="250" r="250" fill="#2a2e35"/>
  
  <!-- Orange Circle Border with Film Reel Pattern -->
  <circle cx="250" cy="250" r="200" fill="none" stroke="#FF8700" stroke-width="12"/>
  
  <!-- Film Reel Rectangles around the border -->
  <g fill="#2a2e35">
    <rect x="245" y="45" width="10" height="20" rx="2"/>
    <rect x="245" y="45" width="10" height="20" rx="2" transform="rotate(22.5 250 250)"/>
    <rect x="245" y="45" width="10" height="20" rx="2" transform="rotate(45 250 250)"/>
    <rect x="245" y="45" width="10" height="20" rx="2" transform="rotate(67.5 250 250)"/>
    <rect x="245" y="45" width="10" height="20" rx="2" transform="rotate(90 250 250)"/>
    <rect x="245" y="45" width="10" height="20" rx="2" transform="rotate(112.5 250 250)"/>
    <rect x="245" y="45" width="10" height="20" rx="2" transform="rotate(135 250 250)"/>
    <rect x="245" y="45" width="10" height="20" rx="2" transform="rotate(157.5 250 250)"/>
    <rect x="245" y="45" width="10" height="20" rx="2" transform="rotate(180 250 250)"/>
    <rect x="245" y="45" width="10" height="20" rx="2" transform="rotate(202.5 250 250)"/>
    <rect x="245" y="45" width="10" height="20" rx="2" transform="rotate(225 250 250)"/>
    <rect x="245" y="45" width="10" height="20" rx="2" transform="rotate(247.5 250 250)"/>
    <rect x="245" y="45" width="10" height="20" rx="2" transform="rotate(270 250 250)"/>
    <rect x="245" y="45" width="10" height="20" rx="2" transform="rotate(292.5 250 250)"/>
    <rect x="245" y="45" width="10" height="20" rx="2" transform="rotate(315 250 250)"/>
    <rect x="245" y="45" width="10" height="20" rx="2" transform="rotate(337.5 250 250)"/>
  </g>
  
  <!-- Inner Orange Circle -->
  <circle cx="250" cy="250" r="180" fill="#FF8700"/>
  
  <!-- CS Letters in Black -->
  <g fill="#1a1a1a">
    <!-- C with camera aperture -->
    <path d="M 180 250 C 180 220 200 195 230 195 C 245 195 258 202 268 212 L 255 228 C 248 220 240 215 230 215 C 212 215 200 230 200 250 C 200 270 212 285 230 285 C 240 285 248 280 255 272 L 268 288 C 258 298 245 305 230 305 C 200 305 180 280 180 250 Z"/>
    
    <!-- Camera aperture symbol in C -->
    <circle cx="210" cy="250" r="12" fill="none" stroke="#1a1a1a" stroke-width="2.5"/>
    <circle cx="210" cy="250" r="5" fill="#1a1a1a"/>
    <line x1="203" y1="243" x2="217" y2="257" stroke="#1a1a1a" stroke-width="2"/>
    <line x1="217" y1="243" x2="203" y2="257" stroke="#1a1a1a" stroke-width="2"/>
    
    <!-- S Letter -->
    <path d="M 270 210 C 270 195 285 185 305 185 C 320 185 332 192 338 203 L 322 213 C 318 207 312 203 305 203 C 295 203 290 207 290 212 C 290 220 298 222 310 225 C 328 230 345 235 345 255 C 345 270 330 280 310 280 C 292 280 278 272 272 260 L 288 250 C 292 258 300 263 310 263 C 320 263 325 259 325 254 C 325 246 317 244 305 241 C 287 236 270 231 270 210 Z"/>
  </g>
  
  <!-- CINESYNC Text at bottom -->
  <text x="250" y="395" font-family="Arial, sans-serif" font-size="42" font-weight="bold" fill="#1a1a1a" text-anchor="middle" letter-spacing="2">CINESYNC</text>
</svg>
